<mxfile host="65bd71144e">
    <diagram id="tlGzwZ_pa7YT7klSlA1s" name="Page-1">
        <mxGraphModel dx="664" dy="425" grid="1" gridSize="10" guides="1" tooltips="1" connect="1" arrows="1" fold="1" page="1" pageScale="1" pageWidth="850" pageHeight="1100" math="0" shadow="0">
            <root>
                <mxCell id="0"/>
                <mxCell id="1" parent="0"/>
                <mxCell id="82" value="" style="shape=cube;whiteSpace=wrap;html=1;boundedLbl=1;backgroundOutline=1;darkOpacity=0.05;darkOpacity2=0.1;fillColor=#990099;" vertex="1" parent="1">
                    <mxGeometry x="540" y="520" width="80" height="70" as="geometry"/>
                </mxCell>
                <mxCell id="74" value="" style="shape=cube;whiteSpace=wrap;html=1;boundedLbl=1;backgroundOutline=1;darkOpacity=0.05;darkOpacity2=0.1;fillColor=#990099;" vertex="1" parent="1">
                    <mxGeometry x="390" y="430" width="60" height="80" as="geometry"/>
                </mxCell>
                <mxCell id="5" value="Input Image&lt;br&gt;(b, 3,&amp;nbsp; a, a)" style="whiteSpace=wrap;html=1;aspect=fixed;fillColor=#0050ef;fontColor=#ffffff;strokeColor=#001DBC;" vertex="1" parent="1">
                    <mxGeometry x="40" y="210" width="80" height="80" as="geometry"/>
                </mxCell>
                <mxCell id="7" value="Input Image&lt;br&gt;(b, 3, h, w)" style="whiteSpace=wrap;html=1;aspect=fixed;fillColor=#0050ef;fontColor=#ffffff;strokeColor=#001DBC;" vertex="1" parent="1">
                    <mxGeometry width="170" height="170" as="geometry"/>
                </mxCell>
                <mxCell id="8" value="Input Image&lt;br&gt;(b, 3, h, w)" style="whiteSpace=wrap;html=1;aspect=fixed;fillColor=#008a00;fontColor=#ffffff;strokeColor=#005700;" vertex="1" parent="1">
                    <mxGeometry x="10" y="10" width="170" height="170" as="geometry"/>
                </mxCell>
                <mxCell id="9" value="Input Image&lt;br&gt;(b, 3, h, w)" style="whiteSpace=wrap;html=1;aspect=fixed;fillColor=#a20025;fontColor=#ffffff;strokeColor=#6F0000;" vertex="1" parent="1">
                    <mxGeometry x="20" y="20" width="170" height="170" as="geometry"/>
                </mxCell>
                <mxCell id="10" value="Input Image&lt;br&gt;(b, 3,&amp;nbsp; a, a)" style="whiteSpace=wrap;html=1;aspect=fixed;fillColor=#008a00;fontColor=#ffffff;strokeColor=#005700;" vertex="1" parent="1">
                    <mxGeometry x="50" y="220" width="80" height="80" as="geometry"/>
                </mxCell>
                <mxCell id="11" value="Input Image&lt;br&gt;(b, 3,&amp;nbsp; a, a)" style="whiteSpace=wrap;html=1;aspect=fixed;fillColor=#a20025;fontColor=#ffffff;strokeColor=#6F0000;" vertex="1" parent="1">
                    <mxGeometry x="60" y="230" width="80" height="80" as="geometry"/>
                </mxCell>
                <mxCell id="20" value="" style="shape=cube;whiteSpace=wrap;html=1;boundedLbl=1;backgroundOutline=1;darkOpacity=0.05;darkOpacity2=0.1;fillColor=#990099;" vertex="1" parent="1">
                    <mxGeometry x="150" y="220" width="30" height="100" as="geometry"/>
                </mxCell>
                <mxCell id="26" value="" style="shape=cube;whiteSpace=wrap;html=1;boundedLbl=1;backgroundOutline=1;darkOpacity=0.05;darkOpacity2=0.1;fillColor=#990099;" vertex="1" parent="1">
                    <mxGeometry x="230" y="220" width="30" height="100" as="geometry"/>
                </mxCell>
                <mxCell id="28" value="" style="shape=cube;whiteSpace=wrap;html=1;boundedLbl=1;backgroundOutline=1;darkOpacity=0.05;darkOpacity2=0.1;fillColor=#990099;" vertex="1" parent="1">
                    <mxGeometry x="190" y="220" width="30" height="100" as="geometry"/>
                </mxCell>
                <mxCell id="43" value="" style="triangle;whiteSpace=wrap;html=1;rotation=90;fillColor=#ffff88;strokeColor=#36393d;" vertex="1" parent="1">
                    <mxGeometry x="75" y="190" width="15" height="20" as="geometry"/>
                </mxCell>
                <mxCell id="44" value="" style="triangle;whiteSpace=wrap;html=1;fillColor=#1ba1e2;fontColor=#ffffff;strokeColor=#006EAF;" vertex="1" parent="1">
                    <mxGeometry x="140" y="260" width="10" height="20" as="geometry"/>
                </mxCell>
                <mxCell id="56" value="" style="triangle;whiteSpace=wrap;html=1;fillColor=#1ba1e2;fontColor=#ffffff;strokeColor=#006EAF;" vertex="1" parent="1">
                    <mxGeometry x="180" y="260" width="10" height="20" as="geometry"/>
                </mxCell>
                <mxCell id="57" value="" style="triangle;whiteSpace=wrap;html=1;fillColor=#1ba1e2;fontColor=#ffffff;strokeColor=#006EAF;" vertex="1" parent="1">
                    <mxGeometry x="190" y="260" width="10" height="20" as="geometry"/>
                </mxCell>
                <mxCell id="58" value="" style="triangle;whiteSpace=wrap;html=1;fillColor=#1ba1e2;fontColor=#ffffff;strokeColor=#006EAF;" vertex="1" parent="1">
                    <mxGeometry x="220" y="260" width="10" height="20" as="geometry"/>
                </mxCell>
                <mxCell id="59" value="" style="triangle;whiteSpace=wrap;html=1;fillColor=#1ba1e2;fontColor=#ffffff;strokeColor=#006EAF;" vertex="1" parent="1">
                    <mxGeometry x="230" y="260" width="10" height="20" as="geometry"/>
                </mxCell>
                <mxCell id="61" value="" style="shape=cube;whiteSpace=wrap;html=1;boundedLbl=1;backgroundOutline=1;darkOpacity=0.05;darkOpacity2=0.1;fillColor=#990099;" vertex="1" parent="1">
                    <mxGeometry x="230" y="330" width="40" height="90" as="geometry"/>
                </mxCell>
                <mxCell id="64" value="" style="triangle;whiteSpace=wrap;html=1;fillColor=#1ba1e2;fontColor=#ffffff;strokeColor=#006EAF;" vertex="1" parent="1">
                    <mxGeometry x="270" y="365" width="10" height="20" as="geometry"/>
                </mxCell>
                <mxCell id="66" value="" style="shape=cube;whiteSpace=wrap;html=1;boundedLbl=1;backgroundOutline=1;darkOpacity=0.05;darkOpacity2=0.1;fillColor=#990099;" vertex="1" parent="1">
                    <mxGeometry x="280" y="330" width="40" height="90" as="geometry"/>
                </mxCell>
                <mxCell id="67" value="" style="shape=cube;whiteSpace=wrap;html=1;boundedLbl=1;backgroundOutline=1;darkOpacity=0.05;darkOpacity2=0.1;fillColor=#990099;" vertex="1" parent="1">
                    <mxGeometry x="330" y="330" width="40" height="90" as="geometry"/>
                </mxCell>
                <mxCell id="68" value="" style="triangle;whiteSpace=wrap;html=1;fillColor=#1ba1e2;fontColor=#ffffff;strokeColor=#006EAF;" vertex="1" parent="1">
                    <mxGeometry x="320" y="365" width="10" height="20" as="geometry"/>
                </mxCell>
                <mxCell id="69" value="" style="triangle;whiteSpace=wrap;html=1;fillColor=#1ba1e2;fontColor=#ffffff;strokeColor=#006EAF;" vertex="1" parent="1">
                    <mxGeometry x="330" y="365" width="10" height="20" as="geometry"/>
                </mxCell>
                <mxCell id="65" value="" style="triangle;whiteSpace=wrap;html=1;fillColor=#1ba1e2;fontColor=#ffffff;strokeColor=#006EAF;" vertex="1" parent="1">
                    <mxGeometry x="280" y="365" width="10" height="20" as="geometry"/>
                </mxCell>
                <mxCell id="71" value="" style="shape=cube;whiteSpace=wrap;html=1;boundedLbl=1;backgroundOutline=1;darkOpacity=0.05;darkOpacity2=0.1;fillColor=#990099;" vertex="1" parent="1">
                    <mxGeometry x="320" y="430" width="60" height="80" as="geometry"/>
                </mxCell>
                <mxCell id="60" value="" style="triangle;whiteSpace=wrap;html=1;rotation=90;fillColor=#fa6800;fontColor=#000000;strokeColor=#C73500;" vertex="1" parent="1">
                    <mxGeometry x="240" y="320" width="10" height="20" as="geometry"/>
                </mxCell>
                <mxCell id="70" value="" style="triangle;whiteSpace=wrap;html=1;rotation=90;fillColor=#fa6800;fontColor=#000000;strokeColor=#C73500;" vertex="1" parent="1">
                    <mxGeometry x="345" y="420" width="10" height="20" as="geometry"/>
                </mxCell>
                <mxCell id="72" value="" style="triangle;whiteSpace=wrap;html=1;fillColor=#1ba1e2;fontColor=#ffffff;strokeColor=#006EAF;" vertex="1" parent="1">
                    <mxGeometry x="380" y="460" width="10" height="20" as="geometry"/>
                </mxCell>
                <mxCell id="73" value="" style="triangle;whiteSpace=wrap;html=1;fillColor=#1ba1e2;fontColor=#ffffff;strokeColor=#006EAF;" vertex="1" parent="1">
                    <mxGeometry x="390" y="460" width="10" height="20" as="geometry"/>
                </mxCell>
                <mxCell id="75" value="" style="shape=cube;whiteSpace=wrap;html=1;boundedLbl=1;backgroundOutline=1;darkOpacity=0.05;darkOpacity2=0.1;fillColor=#990099;" vertex="1" parent="1">
                    <mxGeometry x="460" y="430" width="60" height="80" as="geometry"/>
                </mxCell>
                <mxCell id="76" value="" style="triangle;whiteSpace=wrap;html=1;fillColor=#1ba1e2;fontColor=#ffffff;strokeColor=#006EAF;" vertex="1" parent="1">
                    <mxGeometry x="450" y="460" width="10" height="20" as="geometry"/>
                </mxCell>
                <mxCell id="77" value="" style="triangle;whiteSpace=wrap;html=1;fillColor=#1ba1e2;fontColor=#ffffff;strokeColor=#006EAF;" vertex="1" parent="1">
                    <mxGeometry x="460" y="460" width="10" height="20" as="geometry"/>
                </mxCell>
                <mxCell id="79" value="" style="shape=cube;whiteSpace=wrap;html=1;boundedLbl=1;backgroundOutline=1;darkOpacity=0.05;darkOpacity2=0.1;fillColor=#990099;" vertex="1" parent="1">
                    <mxGeometry x="450" y="520" width="80" height="70" as="geometry"/>
                </mxCell>
                <mxCell id="78" value="" style="triangle;whiteSpace=wrap;html=1;rotation=90;fillColor=#fa6800;fontColor=#000000;strokeColor=#C73500;" vertex="1" parent="1">
                    <mxGeometry x="485" y="510" width="10" height="20" as="geometry"/>
                </mxCell>
                <mxCell id="80" value="" style="triangle;whiteSpace=wrap;html=1;fillColor=#1ba1e2;fontColor=#ffffff;strokeColor=#006EAF;" vertex="1" parent="1">
                    <mxGeometry x="530" y="545" width="10" height="20" as="geometry"/>
                </mxCell>
                <mxCell id="81" value="" style="triangle;whiteSpace=wrap;html=1;fillColor=#1ba1e2;fontColor=#ffffff;strokeColor=#006EAF;" vertex="1" parent="1">
                    <mxGeometry x="540" y="545" width="10" height="20" as="geometry"/>
                </mxCell>
                <mxCell id="83" value="" style="shape=cube;whiteSpace=wrap;html=1;boundedLbl=1;backgroundOutline=1;darkOpacity=0.05;darkOpacity2=0.1;fillColor=#990099;" vertex="1" parent="1">
                    <mxGeometry x="630" y="520" width="80" height="70" as="geometry"/>
                </mxCell>
                <mxCell id="84" value="" style="triangle;whiteSpace=wrap;html=1;fillColor=#1ba1e2;fontColor=#ffffff;strokeColor=#006EAF;" vertex="1" parent="1">
                    <mxGeometry x="620" y="545" width="10" height="20" as="geometry"/>
                </mxCell>
                <mxCell id="85" value="" style="triangle;whiteSpace=wrap;html=1;fillColor=#1ba1e2;fontColor=#ffffff;strokeColor=#006EAF;" vertex="1" parent="1">
                    <mxGeometry x="630" y="545" width="10" height="20" as="geometry"/>
                </mxCell>
                <mxCell id="86" value="&lt;font style=&quot;font-size: 6px&quot;&gt;64&lt;/font&gt;" style="text;html=1;strokeColor=none;fillColor=none;align=center;verticalAlign=middle;whiteSpace=wrap;rounded=0;" vertex="1" parent="1">
                    <mxGeometry x="230" y="295" width="15" height="10" as="geometry"/>
                </mxCell>
                <mxCell id="87" value="&lt;font style=&quot;font-size: 6px&quot;&gt;64&lt;/font&gt;" style="text;html=1;strokeColor=none;fillColor=none;align=center;verticalAlign=middle;whiteSpace=wrap;rounded=0;" vertex="1" parent="1">
                    <mxGeometry x="190" y="295" width="15" height="10" as="geometry"/>
                </mxCell>
                <mxCell id="88" value="&lt;font style=&quot;font-size: 6px&quot;&gt;64&lt;/font&gt;" style="text;html=1;strokeColor=none;fillColor=none;align=center;verticalAlign=middle;whiteSpace=wrap;rounded=0;" vertex="1" parent="1">
                    <mxGeometry x="150" y="295" width="15" height="10" as="geometry"/>
                </mxCell>
                <mxCell id="90" value="&lt;font style=&quot;font-size: 6px&quot;&gt;128&lt;/font&gt;" style="text;html=1;strokeColor=none;fillColor=none;align=center;verticalAlign=middle;whiteSpace=wrap;rounded=0;" vertex="1" parent="1">
                    <mxGeometry x="255" y="375" width="15" height="10" as="geometry"/>
                </mxCell>
                <mxCell id="91" value="&lt;font style=&quot;font-size: 6px&quot;&gt;128&lt;/font&gt;" style="text;html=1;strokeColor=none;fillColor=none;align=center;verticalAlign=middle;whiteSpace=wrap;rounded=0;" vertex="1" parent="1">
                    <mxGeometry x="305" y="375" width="15" height="10" as="geometry"/>
                </mxCell>
                <mxCell id="92" value="&lt;font style=&quot;font-size: 6px&quot;&gt;128&lt;/font&gt;" style="text;html=1;strokeColor=none;fillColor=none;align=center;verticalAlign=middle;whiteSpace=wrap;rounded=0;" vertex="1" parent="1">
                    <mxGeometry x="355" y="375" width="15" height="10" as="geometry"/>
                </mxCell>
                <mxCell id="94" value="&lt;font style=&quot;font-size: 6px&quot;&gt;256&lt;/font&gt;" style="text;html=1;strokeColor=none;fillColor=none;align=center;verticalAlign=middle;whiteSpace=wrap;rounded=0;" vertex="1" parent="1">
                    <mxGeometry x="355" y="475" width="15" height="10" as="geometry"/>
                </mxCell>
                <mxCell id="95" value="&lt;font style=&quot;font-size: 6px&quot;&gt;256&lt;/font&gt;" style="text;html=1;strokeColor=none;fillColor=none;align=center;verticalAlign=middle;whiteSpace=wrap;rounded=0;" vertex="1" parent="1">
                    <mxGeometry x="417.5" y="475" width="15" height="10" as="geometry"/>
                </mxCell>
                <mxCell id="96" value="&lt;font style=&quot;font-size: 6px&quot;&gt;256&lt;/font&gt;" style="text;html=1;strokeColor=none;fillColor=none;align=center;verticalAlign=middle;whiteSpace=wrap;rounded=0;" vertex="1" parent="1">
                    <mxGeometry x="490" y="475" width="15" height="10" as="geometry"/>
                </mxCell>
                <mxCell id="97" value="&lt;font style=&quot;font-size: 6px&quot;&gt;512&lt;/font&gt;" style="text;html=1;strokeColor=none;fillColor=none;align=center;verticalAlign=middle;whiteSpace=wrap;rounded=0;" vertex="1" parent="1">
                    <mxGeometry x="490" y="565" width="15" height="10" as="geometry"/>
                </mxCell>
                <mxCell id="98" value="&lt;font style=&quot;font-size: 6px&quot;&gt;512&lt;/font&gt;" style="text;html=1;strokeColor=none;fillColor=none;align=center;verticalAlign=middle;whiteSpace=wrap;rounded=0;" vertex="1" parent="1">
                    <mxGeometry x="580" y="565" width="15" height="10" as="geometry"/>
                </mxCell>
                <mxCell id="99" value="&lt;font style=&quot;font-size: 6px&quot;&gt;512&lt;/font&gt;" style="text;html=1;strokeColor=none;fillColor=none;align=center;verticalAlign=middle;whiteSpace=wrap;rounded=0;" vertex="1" parent="1">
                    <mxGeometry x="675" y="565" width="15" height="10" as="geometry"/>
                </mxCell>
                <mxCell id="100" value="" style="triangle;whiteSpace=wrap;html=1;fillColor=#1ba1e2;fontColor=#ffffff;strokeColor=#006EAF;" vertex="1" parent="1">
                    <mxGeometry x="385" y="60" width="10" height="20" as="geometry"/>
                </mxCell>
                <mxCell id="101" value="Conv2d 7x7" style="text;html=1;strokeColor=none;fillColor=none;align=center;verticalAlign=middle;whiteSpace=wrap;rounded=0;fontSize=6;" vertex="1" parent="1">
                    <mxGeometry x="405" y="60" width="45" height="20" as="geometry"/>
                </mxCell>
                <mxCell id="102" value="" style="triangle;whiteSpace=wrap;html=1;fillColor=#1ba1e2;fontColor=#ffffff;strokeColor=#006EAF;" vertex="1" parent="1">
                    <mxGeometry x="375" y="95" width="10" height="20" as="geometry"/>
                </mxCell>
                <mxCell id="103" value="" style="triangle;whiteSpace=wrap;html=1;fillColor=#1ba1e2;fontColor=#ffffff;strokeColor=#006EAF;" vertex="1" parent="1">
                    <mxGeometry x="385" y="95" width="10" height="20" as="geometry"/>
                </mxCell>
                <mxCell id="104" value="Double Depthwise Conv 3x3" style="text;html=1;strokeColor=none;fillColor=none;align=center;verticalAlign=middle;whiteSpace=wrap;rounded=0;fontSize=6;" vertex="1" parent="1">
                    <mxGeometry x="405" y="100" width="85" height="15" as="geometry"/>
                </mxCell>
                <mxCell id="105" value="" style="triangle;whiteSpace=wrap;html=1;rotation=90;fillColor=#ffff88;strokeColor=#36393d;" vertex="1" parent="1">
                    <mxGeometry x="380" y="20" width="15" height="20" as="geometry"/>
                </mxCell>
                <mxCell id="106" value="Image Transform" style="text;html=1;strokeColor=none;fillColor=none;align=center;verticalAlign=middle;whiteSpace=wrap;rounded=0;fontSize=6;" vertex="1" parent="1">
                    <mxGeometry x="402.5" y="20" width="57.5" height="20" as="geometry"/>
                </mxCell>
                <mxCell id="108" value="" style="triangle;whiteSpace=wrap;html=1;rotation=90;fillColor=#fa6800;fontColor=#000000;strokeColor=#C73500;" vertex="1" parent="1">
                    <mxGeometry x="380" y="140" width="10" height="20" as="geometry"/>
                </mxCell>
                <mxCell id="109" value="Maxpooling2d 2x2" style="text;html=1;strokeColor=none;fillColor=none;align=center;verticalAlign=middle;whiteSpace=wrap;rounded=0;fontSize=6;" vertex="1" parent="1">
                    <mxGeometry x="400" y="142.5" width="70" height="15" as="geometry"/>
                </mxCell>
                <mxCell id="136" style="edgeStyle=none;html=1;exitX=1;exitY=0.5;exitDx=0;exitDy=0;entryX=0;entryY=0;entryDx=0;entryDy=30;entryPerimeter=0;fontSize=6;" edge="1" parent="1" source="115" target="125">
                    <mxGeometry relative="1" as="geometry"/>
                </mxCell>
                <mxCell id="115" value="" style="shape=image;html=1;verticalLabelPosition=bottom;verticalAlign=top;imageAspect=0;image=img/clipart/Gear_128x128.png;fontSize=6;strokeColor=#990099;fillColor=#33FFFF;" vertex="1" parent="1">
                    <mxGeometry x="540" y="460" width="20" height="20" as="geometry"/>
                </mxCell>
                <mxCell id="117" value="" style="shape=singleArrow;whiteSpace=wrap;html=1;fontSize=6;strokeColor=#C73500;fillColor=#fa6800;arrowWidth=0.395785908315374;arrowSize=0.5589657277074344;fontColor=#000000;" vertex="1" parent="1">
                    <mxGeometry x="520" y="460" width="20" height="20" as="geometry"/>
                </mxCell>
                <mxCell id="124" value="" style="shape=cube;whiteSpace=wrap;html=1;boundedLbl=1;backgroundOutline=1;darkOpacity=0.05;darkOpacity2=0.1;fillColor=#990099;" vertex="1" parent="1">
                    <mxGeometry x="630" y="440" width="80" height="80" as="geometry"/>
                </mxCell>
                <mxCell id="125" value="" style="shape=cube;whiteSpace=wrap;html=1;boundedLbl=1;backgroundOutline=1;darkOpacity=0.05;darkOpacity2=0.1;fillColor=#990099;" vertex="1" parent="1">
                    <mxGeometry x="570" y="440" width="80" height="80" as="geometry"/>
                </mxCell>
                <mxCell id="126" value="" style="edgeStyle=elbowEdgeStyle;elbow=vertical;endArrow=classic;html=1;fontSize=6;entryX=0.5;entryY=1;entryDx=0;entryDy=0;" edge="1" parent="1" source="83" target="115">
                    <mxGeometry width="50" height="50" relative="1" as="geometry">
                        <mxPoint x="610" y="650" as="sourcePoint"/>
                        <mxPoint x="660" y="600" as="targetPoint"/>
                        <Array as="points">
                            <mxPoint x="540" y="610"/>
                            <mxPoint x="610" y="620"/>
                        </Array>
                    </mxGeometry>
                </mxCell>
                <mxCell id="128" value="&lt;font style=&quot;font-size: 6px&quot;&gt;512&lt;/font&gt;" style="text;html=1;strokeColor=none;fillColor=none;align=center;verticalAlign=middle;whiteSpace=wrap;rounded=0;" vertex="1" parent="1">
                    <mxGeometry x="615" y="480" width="15" height="10" as="geometry"/>
                </mxCell>
                <mxCell id="129" value="&lt;font style=&quot;font-size: 6px&quot;&gt;512&lt;/font&gt;" style="text;html=1;strokeColor=none;fillColor=none;align=center;verticalAlign=middle;whiteSpace=wrap;rounded=0;" vertex="1" parent="1">
                    <mxGeometry x="675" y="480" width="15" height="10" as="geometry"/>
                </mxCell>
                <mxCell id="130" value="" style="shape=singleArrow;whiteSpace=wrap;html=1;fontSize=6;strokeColor=#C73500;fillColor=#fa6800;arrowWidth=0.395785908315374;arrowSize=0.5589657277074344;fontColor=#000000;" vertex="1" parent="1">
                    <mxGeometry x="520" y="20" width="20" height="20" as="geometry"/>
                </mxCell>
                <mxCell id="131" value="Down-sampling (Conv stride = 2)" style="text;html=1;strokeColor=none;fillColor=none;align=center;verticalAlign=middle;whiteSpace=wrap;rounded=0;fontSize=6;" vertex="1" parent="1">
                    <mxGeometry x="547.5" y="25" width="97.5" height="15" as="geometry"/>
                </mxCell>
                <mxCell id="132" value="" style="triangle;whiteSpace=wrap;html=1;fillColor=#33FFFF;fontColor=#ffffff;strokeColor=#006EAF;rotation=-90;" vertex="1" parent="1">
                    <mxGeometry x="527.5" y="60" width="10" height="15" as="geometry"/>
                </mxCell>
                <mxCell id="133" value="ConvTranspose2d&amp;nbsp; 3x3" style="text;html=1;strokeColor=none;fillColor=none;align=center;verticalAlign=middle;whiteSpace=wrap;rounded=0;fontSize=6;" vertex="1" parent="1">
                    <mxGeometry x="547.5" y="60" width="77.5" height="15" as="geometry"/>
                </mxCell>
                <mxCell id="134" value="" style="shape=image;html=1;verticalLabelPosition=bottom;verticalAlign=top;imageAspect=0;image=img/clipart/Gear_128x128.png;fontSize=6;strokeColor=#990099;fillColor=#33FFFF;" vertex="1" parent="1">
                    <mxGeometry x="522.5" y="100" width="20" height="20" as="geometry"/>
                </mxCell>
                <mxCell id="135" value="Attention Gate Connection" style="text;html=1;strokeColor=none;fillColor=none;align=center;verticalAlign=middle;whiteSpace=wrap;rounded=0;fontSize=6;" vertex="1" parent="1">
                    <mxGeometry x="551.25" y="102.5" width="83.75" height="15" as="geometry"/>
                </mxCell>
                <mxCell id="123" value="" style="triangle;whiteSpace=wrap;html=1;fillColor=#33FFFF;fontColor=#ffffff;strokeColor=#006EAF;rotation=-90;" vertex="1" parent="1">
                    <mxGeometry x="665" y="512.5" width="10" height="15" as="geometry"/>
                </mxCell>
                <mxCell id="143" value="Double Up-sampling Depth-wise 3x3" style="text;html=1;strokeColor=none;fillColor=none;align=center;verticalAlign=middle;whiteSpace=wrap;rounded=0;fontSize=6;" vertex="1" parent="1">
                    <mxGeometry x="550" y="145" width="105" height="15" as="geometry"/>
                </mxCell>
                <mxCell id="144" value="" style="shape=cube;whiteSpace=wrap;html=1;boundedLbl=1;backgroundOutline=1;darkOpacity=0.05;darkOpacity2=0.1;fillColor=#990099;" vertex="1" parent="1">
                    <mxGeometry x="720" y="440" width="80" height="80" as="geometry"/>
                </mxCell>
                <mxCell id="145" value="" style="triangle;whiteSpace=wrap;html=1;fillColor=#33FFFF;fontColor=#ffffff;strokeColor=#006EAF;" vertex="1" parent="1">
                    <mxGeometry x="710" y="470" width="10" height="20" as="geometry"/>
                </mxCell>
                <mxCell id="146" value="" style="triangle;whiteSpace=wrap;html=1;fillColor=#33FFFF;fontColor=#ffffff;strokeColor=#006EAF;" vertex="1" parent="1">
                    <mxGeometry x="720" y="470" width="10" height="20" as="geometry"/>
                </mxCell>
                <mxCell id="147" value="&lt;font style=&quot;font-size: 6px&quot;&gt;512&lt;/font&gt;" style="text;html=1;strokeColor=none;fillColor=none;align=center;verticalAlign=middle;whiteSpace=wrap;rounded=0;" vertex="1" parent="1">
                    <mxGeometry x="760" y="520" width="15" height="10" as="geometry"/>
                </mxCell>
                <mxCell id="150" value="" style="triangle;whiteSpace=wrap;html=1;fillColor=#33FFFF;fontColor=#ffffff;strokeColor=#006EAF;" vertex="1" parent="1">
                    <mxGeometry x="522.5" y="140" width="10" height="20" as="geometry"/>
                </mxCell>
                <mxCell id="151" value="" style="triangle;whiteSpace=wrap;html=1;fillColor=#33FFFF;fontColor=#ffffff;strokeColor=#006EAF;" vertex="1" parent="1">
                    <mxGeometry x="532.5" y="140" width="10" height="20" as="geometry"/>
                </mxCell>
                <mxCell id="152" value="" style="shape=ext;double=1;rounded=0;whiteSpace=wrap;html=1;fontSize=6;strokeColor=#FFB366;fillColor=none;" vertex="1" parent="1">
                    <mxGeometry x="380" y="177.5" width="434.87" height="225" as="geometry"/>
                </mxCell>
                <mxCell id="153" value="" style="shape=image;html=1;verticalLabelPosition=bottom;verticalAlign=top;imageAspect=0;image=img/clipart/Gear_128x128.png;fontSize=6;strokeColor=#990099;fillColor=#33FFFF;" vertex="1" parent="1">
                    <mxGeometry x="390" y="185" width="40" height="45" as="geometry"/>
                </mxCell>
                <mxCell id="154" value="" style="shape=cube;whiteSpace=wrap;html=1;boundedLbl=1;backgroundOutline=1;darkOpacity=0.05;darkOpacity2=0.1;fontSize=6;strokeColor=#FFFFFF;fillColor=#990099;" vertex="1" parent="1">
                    <mxGeometry x="465" y="200" width="30" height="70" as="geometry"/>
                </mxCell>
                <mxCell id="155" value="" style="shape=cube;whiteSpace=wrap;html=1;boundedLbl=1;backgroundOutline=1;darkOpacity=0.05;darkOpacity2=0.1;fontSize=6;strokeColor=#FFFFFF;fillColor=#990099;" vertex="1" parent="1">
                    <mxGeometry x="470" y="295" width="30" height="70" as="geometry"/>
                </mxCell>
                <mxCell id="161" value="Attention Signal" style="text;html=1;strokeColor=none;fillColor=none;align=center;verticalAlign=middle;whiteSpace=wrap;rounded=0;fontSize=6;" vertex="1" parent="1">
                    <mxGeometry x="460" y="270" width="50" height="10" as="geometry"/>
                </mxCell>
                <mxCell id="162" value="Gate Signal" style="text;html=1;strokeColor=none;fillColor=none;align=center;verticalAlign=middle;whiteSpace=wrap;rounded=0;fontSize=6;" vertex="1" parent="1">
                    <mxGeometry x="465" y="365" width="50" height="10" as="geometry"/>
                </mxCell>
                <mxCell id="163" value="" style="shape=orEllipse;perimeter=ellipsePerimeter;whiteSpace=wrap;html=1;backgroundOutline=1;fontSize=6;strokeColor=#FFFFFF;fillColor=none;" vertex="1" parent="1">
                    <mxGeometry x="547.5" y="275" width="20" height="20" as="geometry"/>
                </mxCell>
                <mxCell id="166" value="" style="edgeStyle=segmentEdgeStyle;endArrow=classic;html=1;fontSize=6;entryX=0.5;entryY=1;entryDx=0;entryDy=0;exitX=0;exitY=0;exitDx=30;exitDy=45;exitPerimeter=0;" edge="1" parent="1" source="155" target="163">
                    <mxGeometry width="50" height="50" relative="1" as="geometry">
                        <mxPoint x="520" y="340" as="sourcePoint"/>
                        <mxPoint x="570" y="290" as="targetPoint"/>
                    </mxGeometry>
                </mxCell>
                <mxCell id="168" value="" style="edgeStyle=segmentEdgeStyle;endArrow=classic;html=1;fontSize=6;entryX=0.5;entryY=0;entryDx=0;entryDy=0;" edge="1" parent="1" source="154" target="163">
                    <mxGeometry width="50" height="50" relative="1" as="geometry">
                        <mxPoint x="520" y="250" as="sourcePoint"/>
                        <mxPoint x="570" y="200" as="targetPoint"/>
                    </mxGeometry>
                </mxCell>
                <mxCell id="170" value="" style="shape=cube;whiteSpace=wrap;html=1;boundedLbl=1;backgroundOutline=1;darkOpacity=0.05;darkOpacity2=0.1;fontSize=6;strokeColor=#FFFFFF;fillColor=#990099;" vertex="1" parent="1">
                    <mxGeometry x="625" y="260" width="30" height="70" as="geometry"/>
                </mxCell>
                <mxCell id="172" value="" style="endArrow=classic;html=1;fontSize=6;exitX=1;exitY=0.5;exitDx=0;exitDy=0;entryX=0;entryY=0;entryDx=0;entryDy=25;entryPerimeter=0;" edge="1" parent="1" source="163" target="170">
                    <mxGeometry width="50" height="50" relative="1" as="geometry">
                        <mxPoint x="590" y="290" as="sourcePoint"/>
                        <mxPoint x="640" y="240" as="targetPoint"/>
                    </mxGeometry>
                </mxCell>
                <mxCell id="174" value="ReLU;&lt;br&gt;&amp;nbsp;Conv 1x1;&lt;br&gt;Sigmoid" style="text;html=1;strokeColor=none;fillColor=none;align=center;verticalAlign=middle;whiteSpace=wrap;rounded=0;fontSize=6;" vertex="1" parent="1">
                    <mxGeometry x="570.63" y="290" width="45" height="20" as="geometry"/>
                </mxCell>
                <mxCell id="175" value="Conv 1x1" style="text;html=1;strokeColor=none;fillColor=none;align=center;verticalAlign=middle;whiteSpace=wrap;rounded=0;fontSize=6;" vertex="1" parent="1">
                    <mxGeometry x="497.5" y="240" width="42.5" height="10" as="geometry"/>
                </mxCell>
                <mxCell id="176" value="Conv 1x1" style="text;html=1;strokeColor=none;fillColor=none;align=center;verticalAlign=middle;whiteSpace=wrap;rounded=0;fontSize=6;" vertex="1" parent="1">
                    <mxGeometry x="500" y="325" width="42.5" height="10" as="geometry"/>
                </mxCell>
                <mxCell id="184" style="edgeStyle=none;html=1;exitX=0;exitY=0;exitDx=30;exitDy=55;exitPerimeter=0;entryX=0;entryY=0.5;entryDx=0;entryDy=0;fontSize=6;" edge="1" parent="1" source="177" target="182">
                    <mxGeometry relative="1" as="geometry"/>
                </mxCell>
                <mxCell id="177" value="" style="shape=cube;whiteSpace=wrap;html=1;boundedLbl=1;backgroundOutline=1;darkOpacity=0.05;darkOpacity2=0.1;fontSize=6;strokeColor=#FFFFFF;fillColor=#990099;" vertex="1" parent="1">
                    <mxGeometry x="710" y="245" width="30" height="90" as="geometry"/>
                </mxCell>
                <mxCell id="179" value="Up-sampling&lt;br&gt;(Scale = 2)" style="text;html=1;strokeColor=none;fillColor=none;align=center;verticalAlign=middle;whiteSpace=wrap;rounded=0;fontSize=6;" vertex="1" parent="1">
                    <mxGeometry x="652.5" y="285" width="60" height="30" as="geometry"/>
                </mxCell>
                <mxCell id="181" value="" style="endArrow=classic;html=1;fontSize=6;exitX=0;exitY=0;exitDx=30;exitDy=20;exitPerimeter=0;entryX=0;entryY=0;entryDx=0;entryDy=35;entryPerimeter=0;" edge="1" parent="1" source="170" target="177">
                    <mxGeometry width="50" height="50" relative="1" as="geometry">
                        <mxPoint x="630" y="360" as="sourcePoint"/>
                        <mxPoint x="680" y="310" as="targetPoint"/>
                    </mxGeometry>
                </mxCell>
                <mxCell id="185" style="edgeStyle=none;html=1;exitX=1;exitY=0.5;exitDx=0;exitDy=0;fontSize=6;" edge="1" parent="1" source="182">
                    <mxGeometry relative="1" as="geometry">
                        <mxPoint x="800" y="299.9047619047619" as="targetPoint"/>
                    </mxGeometry>
                </mxCell>
                <mxCell id="182" value="" style="shape=sumEllipse;perimeter=ellipsePerimeter;whiteSpace=wrap;html=1;backgroundOutline=1;fontSize=6;strokeColor=default;fillColor=none;" vertex="1" parent="1">
                    <mxGeometry x="760" y="290" width="20" height="20" as="geometry"/>
                </mxCell>
                <mxCell id="183" value="" style="edgeStyle=segmentEdgeStyle;endArrow=classic;html=1;fontSize=6;exitX=0;exitY=0;exitDx=30;exitDy=20;exitPerimeter=0;entryX=0.5;entryY=0;entryDx=0;entryDy=0;" edge="1" parent="1" source="154" target="182">
                    <mxGeometry width="50" height="50" relative="1" as="geometry">
                        <mxPoint x="590" y="320" as="sourcePoint"/>
                        <mxPoint x="750" y="260" as="targetPoint"/>
                    </mxGeometry>
                </mxCell>
            </root>
        </mxGraphModel>
    </diagram>
</mxfile>